<?xml version="1.0" encoding="UTF-8"?>
<!DOCTYPE svg PUBLIC "-//W3C//DTD SVG 1.1//EN" "http://www.w3.org/Graphics/SVG/1.1/DTD/svg11.dtd">
<!-- Creator: CorelDRAW X7 -->
<svg xmlns="http://www.w3.org/2000/svg" xml:space="preserve" width="6.97556in" height="1.41243in" version="1.1" style="shape-rendering:geometricPrecision; text-rendering:geometricPrecision; image-rendering:optimizeQuality; fill-rule:evenodd; clip-rule:evenodd"
viewBox="0 0 5494 1113"
 xmlns:xlink="http://www.w3.org/1999/xlink">
 <defs>
  <style type="text/css">
   <![CDATA[
    .fil2 {fill:#FEFEFE}
    .fil1 {fill:#006475}
    .fil3 {fill:#006475}
    .fil0 {fill:#006475;fill-rule:nonzero}
   ]]>
  </style>
 </defs>
 <g id="Layer_x0020_1">
  <metadata id="CorelCorpID_0Corel-Layer"/>
  <g id="_859653376">
   <path class="fil0" d="M1594 639l-202 0c-15,47 -31,88 -48,122 -18,35 -37,64 -58,86 -21,23 -44,40 -69,51 -25,11 -54,17 -85,17 -17,0 -33,-2 -49,-5 -16,-3 -30,-7 -42,-12 -12,-6 -22,-12 -29,-19 -8,-7 -11,-15 -11,-24 0,-6 1,-13 3,-20 2,-6 4,-12 8,-18 4,-5 8,-10 13,-13 5,-3 11,-5 17,-5 6,0 11,4 15,12 5,7 10,16 17,26 6,9 15,18 25,25 11,8 25,12 43,12 19,0 36,-4 53,-13 17,-9 33,-23 49,-42 15,-19 30,-44 44,-73 15,-30 28,-66 42,-107l-126 0 0 -47 140 0c12,-40 23,-81 34,-121 12,-41 22,-80 32,-118 10,-37 19,-72 27,-105 8,-33 15,-61 20,-85 -7,-20 -17,-34 -29,-41 -12,-6 -29,-10 -50,-10 -19,0 -39,3 -60,9 -20,6 -39,14 -55,25 -17,11 -31,25 -42,41 -11,15 -16,33 -16,53 0,11 1,20 4,27 3,7 7,12 11,15 4,4 8,6 12,7 4,1 7,1 9,1 9,0 16,-1 22,-4 6,-4 11,-7 15,-10 5,-4 9,-7 13,-10 5,-3 10,-4 15,-4 4,0 8,1 13,3 5,2 9,5 13,9 5,4 8,10 11,17 3,7 4,15 4,25 0,15 -3,27 -8,37 -6,11 -13,19 -22,26 -8,7 -18,12 -30,16 -11,3 -22,5 -33,5 -17,0 -33,-3 -46,-9 -14,-7 -26,-15 -35,-26 -10,-11 -17,-23 -22,-38 -5,-14 -8,-29 -8,-45 0,-23 4,-45 12,-65 8,-19 19,-37 33,-54 13,-16 30,-30 49,-42 19,-13 39,-23 61,-32 22,-8 45,-14 69,-19 24,-4 48,-6 72,-6 34,0 64,3 87,8 24,6 44,14 60,25 16,11 29,25 39,41 10,17 18,36 24,58l115 396 117 0 0 47 -104 0 42 140c1,5 3,10 4,15 2,5 3,9 5,12 2,3 5,6 8,8 3,2 7,4 11,4 10,0 20,-2 28,-6 9,-3 16,-6 23,-10l9 20c-7,4 -15,10 -25,16 -9,5 -21,11 -33,16 -13,6 -27,10 -42,14 -16,3 -32,5 -50,5 -24,0 -44,-3 -58,-9 -15,-6 -27,-13 -35,-22 -8,-9 -15,-19 -18,-29 -4,-10 -7,-19 -9,-26l-43 -148zm-104 -362c-15,59 -29,115 -42,168 -14,52 -28,101 -41,147l174 0 -91 -315zm799 321c0,-45 -2,-81 -7,-108 -4,-27 -9,-47 -16,-61 -7,-15 -14,-24 -22,-28 -9,-5 -17,-7 -26,-7 -10,0 -19,3 -27,8 -8,6 -15,12 -21,19 -6,7 -11,14 -15,22 -4,7 -8,12 -10,16l0 357c0,5 -1,11 -3,17 -1,7 -4,13 -10,19 -5,6 -14,11 -25,15 -10,4 -25,6 -44,6 -19,0 -34,-2 -45,-7 -11,-4 -19,-9 -25,-15 -6,-6 -9,-13 -11,-19 -1,-6 -2,-12 -2,-16l0 -413c0,-10 -2,-19 -7,-27 -5,-8 -13,-11 -24,-11 -7,0 -12,0 -16,3 -4,2 -9,5 -14,9l-11 -14c8,-6 17,-13 28,-20 10,-6 21,-12 32,-17 12,-5 25,-9 38,-12 14,-4 28,-5 43,-5 23,0 42,4 54,11 13,8 23,17 29,28 6,11 10,22 11,33 1,12 2,22 2,30 13,-19 28,-36 45,-51 6,-7 14,-13 22,-19 9,-6 18,-12 27,-16 10,-5 20,-9 30,-12 11,-3 22,-4 32,-4 25,0 46,4 65,14 19,9 35,25 48,46 12,22 22,51 29,87 7,36 10,80 10,133 0,52 -5,97 -14,135 -9,38 -21,71 -36,98 -15,27 -32,49 -51,65 -19,17 -38,31 -57,40 -20,10 -38,17 -56,20 -18,4 -33,6 -46,6l-6 -21c11,-3 21,-7 30,-12 9,-6 18,-13 25,-24 8,-10 14,-23 20,-39 6,-16 11,-36 15,-60 4,-24 7,-52 9,-85 2,-32 3,-71 3,-114zm431 -245c-12,0 -24,1 -34,4 -10,3 -19,6 -27,11 -7,4 -13,9 -17,14 -5,5 -7,10 -7,15 0,5 3,9 8,11 6,2 12,5 19,8 7,3 13,7 18,13 6,6 9,14 9,25 0,8 -2,15 -5,21 -3,6 -7,12 -12,17 -5,5 -11,8 -18,11 -7,3 -15,4 -22,4 -20,0 -36,-7 -48,-20 -13,-14 -19,-32 -19,-54 0,-22 6,-41 17,-56 12,-16 27,-29 45,-39 18,-10 39,-17 62,-22 24,-5 47,-7 70,-7 28,0 54,3 80,9 25,6 47,16 67,29 19,13 35,30 47,50 11,21 17,45 17,74l0 303c0,3 0,6 0,10 1,4 2,8 3,11 1,3 4,6 7,8 2,2 7,3 12,3 6,0 12,-2 18,-7 5,-5 10,-10 15,-15l13 12c-5,7 -12,15 -19,24 -8,9 -17,18 -28,25 -10,8 -23,15 -37,20 -14,6 -31,8 -49,8 -22,0 -42,-7 -60,-20 -17,-13 -29,-34 -34,-62 -12,16 -24,29 -36,39 -12,10 -25,19 -38,25 -12,6 -25,11 -38,14 -13,3 -26,4 -40,4 -17,0 -33,-2 -50,-8 -16,-5 -30,-14 -43,-25 -12,-12 -23,-27 -30,-46 -8,-18 -12,-41 -12,-68 0,-32 7,-59 20,-79 12,-21 29,-38 50,-52 21,-15 45,-27 71,-37 27,-10 54,-20 82,-31 21,-9 36,-21 45,-37 10,-16 15,-33 15,-50 0,-26 -8,-48 -24,-63 -15,-16 -36,-24 -63,-24zm556 465c0,4 -1,10 -3,16 -1,7 -5,13 -11,18 -6,6 -14,11 -26,15 -11,4 -26,6 -45,6 -19,0 -34,-2 -45,-7 -10,-4 -18,-9 -23,-15 -5,-6 -9,-13 -10,-19 -1,-6 -2,-12 -2,-16l0 -690c0,-11 -2,-20 -7,-27 -5,-8 -13,-12 -24,-12 -6,0 -12,1 -16,3 -5,2 -9,5 -14,9l-11 -13c8,-7 17,-13 27,-20 10,-7 21,-13 33,-17 12,-5 25,-10 39,-13 13,-3 27,-5 42,-5 24,0 42,3 54,10 13,6 23,14 29,23 6,9 9,19 11,29 1,10 2,19 2,27l0 698zm561 -425c0,65 -6,128 -19,189 -12,61 -30,118 -52,172 -22,53 -49,102 -80,146 -30,44 -64,82 -100,113 -36,31 -74,56 -114,73 -40,18 -81,27 -122,27 -31,0 -56,-6 -73,-16 -17,-11 -25,-25 -25,-43 0,-7 1,-13 3,-20 2,-6 5,-12 8,-17 4,-5 8,-9 13,-12 5,-3 11,-4 16,-4 7,0 13,3 17,10 5,7 9,14 14,22 5,8 11,16 19,22 7,7 17,11 29,11 16,0 33,-3 50,-9 18,-5 35,-13 53,-24 18,-10 36,-23 53,-37 18,-15 35,-32 52,-50 -10,-36 -21,-75 -34,-118 -13,-43 -27,-86 -41,-129 -15,-43 -30,-85 -45,-125 -15,-40 -30,-76 -44,-107 -15,-31 -29,-56 -42,-74 -14,-19 -25,-28 -36,-28 -6,0 -12,0 -16,3 -3,2 -8,5 -13,9l-10 -14c7,-6 14,-12 22,-18 8,-7 17,-13 28,-18 11,-5 23,-10 38,-13 14,-4 31,-5 51,-5 22,0 42,5 61,15 18,9 35,27 51,54 11,19 22,43 34,71 12,27 24,58 37,92 12,34 24,70 36,110 13,39 25,80 37,124 22,-47 40,-96 54,-148 13,-52 20,-105 20,-160 0,-20 -1,-37 -3,-51 -3,-13 -6,-25 -9,-35 -3,-10 -6,-18 -9,-25 -2,-7 -3,-13 -3,-19 0,-5 2,-10 6,-13 4,-4 10,-7 16,-9 6,-2 12,-4 18,-5 6,-1 12,-1 16,-1 10,0 17,2 22,6 5,4 9,9 12,16 2,8 3,17 4,27 0,10 0,22 0,35zm293 6c3,-5 7,-10 9,-15 3,-6 4,-11 4,-15 0,-7 -5,-12 -16,-15 -10,-3 -30,-4 -59,-4 -18,0 -33,2 -45,7 -12,4 -21,9 -29,15 -8,6 -14,13 -19,21 -5,7 -9,14 -12,21 -4,6 -7,11 -11,15 -3,5 -7,7 -13,7 -6,0 -11,-2 -15,-6 -5,-4 -9,-9 -12,-15 -2,-6 -5,-12 -6,-19 -1,-7 -2,-14 -2,-20 0,-10 4,-19 12,-27 8,-8 20,-15 36,-21 16,-6 35,-11 58,-14 22,-4 48,-5 78,-5 47,0 86,2 116,6 29,4 53,9 69,16 17,6 29,14 35,23 6,10 9,20 9,30 0,6 -2,12 -4,19 -3,7 -6,14 -10,20 -4,7 -7,13 -11,18 -4,6 -7,10 -8,12l-223 341c-1,2 -3,5 -5,9 -3,4 -4,8 -4,12 0,3 1,6 3,8 2,2 6,4 11,5 6,2 14,3 24,3 11,1 24,1 41,1 21,0 39,-2 53,-7 14,-5 26,-10 35,-18 9,-7 16,-14 21,-22 6,-8 10,-16 14,-23 4,-7 8,-13 12,-18 3,-5 8,-7 14,-7 6,0 12,2 16,7 5,4 9,10 12,17 3,7 6,14 7,22 2,8 3,15 3,21 0,10 -4,19 -13,27 -9,9 -22,16 -39,22 -18,6 -40,11 -67,15 -27,3 -59,5 -95,5 -40,0 -74,-1 -102,-5 -27,-3 -50,-8 -68,-14 -17,-6 -30,-14 -38,-24 -7,-9 -11,-21 -11,-33 0,-11 2,-21 7,-31 5,-10 12,-22 21,-35l217 -332zm446 417c0,5 -1,11 -2,17 -2,7 -6,13 -12,19 -6,6 -14,11 -25,15 -11,4 -26,6 -45,6 -19,0 -34,-2 -44,-7 -11,-4 -19,-9 -25,-15 -5,-6 -8,-13 -9,-19 -2,-6 -2,-12 -2,-16l0 -413c0,-10 -3,-19 -8,-27 -5,-8 -13,-11 -24,-11 -6,0 -11,0 -15,3 -5,2 -9,5 -15,9l-11 -14c9,-6 18,-13 28,-20 10,-6 21,-12 33,-17 12,-5 24,-9 38,-12 13,-4 28,-5 43,-5 23,0 41,3 54,9 13,6 22,14 28,23 6,9 10,19 11,29 1,11 2,20 2,28l0 418zm-181 -629c0,-10 2,-20 7,-29 4,-9 10,-17 18,-24 9,-7 18,-12 28,-16 11,-4 22,-6 35,-6 12,0 23,2 34,6 10,4 20,9 27,16 8,7 14,15 19,24 4,9 7,19 7,29 0,10 -3,20 -7,29 -5,9 -11,16 -19,23 -7,7 -17,12 -27,16 -11,4 -22,6 -34,6 -13,0 -24,-2 -35,-6 -10,-4 -19,-9 -28,-16 -8,-7 -14,-14 -18,-23 -5,-9 -7,-19 -7,-29zm580 -119c-10,0 -19,2 -28,7 -9,4 -17,11 -24,20 -6,10 -12,22 -16,37 -3,14 -5,32 -5,53l0 131 117 0 0 39 -117 0 0 422c0,48 -7,93 -19,134 -13,41 -32,77 -58,106 -26,30 -58,54 -96,70 -39,17 -84,26 -135,26 -19,0 -36,-2 -53,-5 -17,-3 -31,-7 -44,-12 -13,-6 -23,-12 -31,-19 -8,-8 -12,-16 -12,-25 0,-6 1,-13 3,-20 2,-6 5,-12 8,-17 4,-6 8,-10 13,-14 6,-3 11,-5 18,-5 4,0 8,2 11,6 3,4 6,9 9,15 3,5 7,12 11,19 4,7 9,13 16,19 6,5 14,10 24,14 9,4 21,6 34,6 18,0 34,-4 48,-11 14,-7 26,-17 36,-30 10,-13 19,-28 25,-46 7,-17 13,-36 16,-56 4,-20 7,-41 9,-63 1,-21 2,-43 2,-65l0 -449 -98 0 0 -39 98 0 0 -62c0,-32 4,-59 12,-82 7,-24 18,-44 30,-60 13,-17 27,-30 43,-40 17,-11 33,-19 49,-25 17,-6 33,-10 49,-12 16,-3 29,-4 41,-4 25,0 48,2 68,6 19,4 36,9 49,15 13,6 23,14 30,22 7,8 10,16 10,25 0,6 -1,13 -3,19 -2,7 -5,13 -8,19 -4,5 -8,10 -13,13 -6,3 -11,5 -18,5 -4,0 -7,-2 -10,-6 -4,-5 -7,-10 -11,-16 -3,-7 -7,-14 -11,-21 -5,-8 -10,-15 -16,-21 -7,-7 -14,-12 -22,-16 -9,-5 -19,-7 -31,-7zm519 325c0,65 -6,128 -19,189 -12,61 -30,118 -52,172 -22,53 -49,102 -80,146 -30,44 -64,82 -100,113 -36,31 -74,56 -114,73 -40,18 -81,27 -122,27 -31,0 -56,-6 -73,-16 -17,-11 -25,-25 -25,-43 0,-7 1,-13 3,-20 2,-6 5,-12 8,-17 4,-5 8,-9 13,-12 5,-3 11,-4 16,-4 7,0 13,3 17,10 4,7 9,14 14,22 5,8 11,16 18,22 8,7 17,11 30,11 16,0 33,-3 50,-9 18,-5 35,-13 53,-24 18,-10 35,-23 53,-37 18,-15 35,-32 52,-50 -10,-36 -21,-75 -34,-118 -13,-43 -27,-86 -41,-129 -15,-43 -30,-85 -45,-125 -15,-40 -30,-76 -44,-107 -15,-31 -29,-56 -42,-74 -14,-19 -26,-28 -36,-28 -7,0 -12,0 -16,3 -3,2 -8,5 -13,9l-10 -14c7,-6 14,-12 22,-18 8,-7 17,-13 28,-18 11,-5 23,-10 38,-13 14,-4 31,-5 51,-5 22,0 42,5 61,15 18,9 35,27 51,54 11,19 22,43 34,71 12,27 24,58 36,92 13,34 25,70 37,110 12,39 25,80 37,124 22,-47 40,-96 54,-148 13,-52 20,-105 20,-160 0,-20 -1,-37 -3,-51 -3,-13 -6,-25 -9,-35 -3,-10 -6,-18 -9,-25 -2,-7 -3,-13 -3,-19 0,-5 2,-10 6,-13 4,-4 10,-7 16,-9 6,-2 12,-4 18,-5 6,-1 12,-1 16,-1 9,0 17,2 22,6 5,4 9,9 12,16 2,8 3,17 4,27 0,10 0,22 0,35z"/>
   <path class="fil1" d="M687 183c10,-3 14,12 4,15 -9,3 -16,-12 -4,-15zm-158 -21c10,-5 16,10 8,14 -7,3 -14,-2 -12,-10 1,-3 2,-3 4,-4zm246 -21c10,-6 16,9 7,13 -5,3 -9,0 -11,-3 -3,-7 2,-9 4,-10zm-230 18c-2,-1 -10,-10 -20,-3 -6,3 -10,11 -6,20 7,14 29,11 29,-10l40 -14c0,1 1,1 1,1l4 6c8,7 18,4 25,-6 4,2 54,31 56,34 -5,23 23,27 29,12 1,-5 -1,-4 3,-7 1,-1 6,-4 7,-4l52 -31c6,2 11,9 21,3 15,-9 5,-33 -13,-27 -8,3 -9,7 -10,17l-60 35c-2,-5 -6,-8 -11,-9 -7,-2 -10,1 -15,3 -11,-7 -45,-25 -56,-32 -4,-3 -2,-5 -5,-9 -3,-4 -11,-8 -19,-5 -11,5 -4,10 -12,13 -11,4 -29,11 -40,13z"/>
   <g>
    <path class="fil2" d="M2655 763c-2,-1 -3,-1 -4,-2 -1,-1 -5,-4 -6,-6 0,0 0,0 -1,-1 0,0 0,0 0,0 -4,-4 -8,-11 -10,-17 -15,-37 11,-79 53,-80l0 -38c-23,1 -42,9 -56,19 -4,3 -10,8 -13,11 -1,1 -1,2 -2,3 -7,8 -13,18 -18,29 -9,25 -8,54 4,78 3,6 7,12 11,17 2,3 5,6 7,8 1,1 2,1 2,2 1,1 2,2 3,2l2 2 28 -27z"/>
    <path class="fil2" d="M2633 794c1,2 8,6 10,7 3,2 7,3 11,5 8,3 17,5 27,6 25,2 50,-6 68,-22l4 -4c2,-1 3,-3 5,-4 0,-1 3,-3 3,-4 1,-1 2,-2 2,-2 7,-8 13,-19 16,-29 2,-5 3,-9 4,-13 0,-4 1,-12 1,-15l-38 0c0,6 -1,10 -3,15 -4,13 -13,24 -24,31 -16,10 -35,12 -53,5l-6 -3 -27 27z"/>
    <path class="fil2" d="M2694 658c15,1 29,10 36,17 4,5 8,9 11,16 3,7 5,13 5,22l38 0c0,-4 0,-8 -1,-11 -1,-13 -5,-23 -11,-34 -3,-4 -5,-7 -7,-10 -1,-2 -2,-3 -3,-4 -2,-2 -3,-3 -4,-5 -1,0 -1,0 -1,-1 -7,-6 -16,-14 -27,-19 -10,-5 -23,-9 -36,-9l0 38z"/>
   </g>
   <path class="fil3" d="M665 74c40,-2 77,5 111,19 36,14 53,28 79,51 98,86 113,246 30,353l-15 17c-2,2 -4,5 -6,7l0 -177 -107 41 0 202c-7,2 -14,4 -22,6l0 -152 -106 -48 0 200c-9,-1 -17,-3 -25,-6l0 -172 -107 -71 0 180c-8,-9 -20,-22 -25,-30 -9,-11 -18,-25 -25,-40 -84,-169 32,-371 218,-380zm-4 -74c-65,3 -134,30 -182,68 -49,38 -85,83 -109,143 -43,109 -26,233 42,327 3,4 7,8 9,11 16,19 25,27 42,43 9,8 25,20 35,27 117,75 271,71 381,-14 9,-7 16,-13 23,-19 4,-3 7,-7 10,-10 8,-8 14,-13 21,-22 3,-4 6,-7 9,-11 6,-8 12,-16 17,-25 78,-120 69,-286 -23,-395 -8,-10 -22,-26 -30,-33 -28,-25 -57,-47 -102,-66 -42,-17 -92,-26 -143,-24z"/>
   <path class="fil3" d="M45 896c3,4 76,79 80,81l54 -55c6,-7 12,-11 18,-18 48,-50 97,-97 145,-146 9,-10 63,-66 72,-73 -2,-5 -77,-80 -79,-81 -6,3 -31,30 -37,36 -12,13 -24,24 -36,37 -6,6 -12,11 -19,18l-89 91c-12,13 -25,24 -37,36l-72 74z"/>
   <path class="fil3" d="M11 893c-7,3 -13,10 -11,20 2,8 11,15 15,19 11,11 21,22 32,33 12,12 36,38 48,48 6,5 12,12 23,8 7,-3 12,-10 10,-20 -1,-8 -9,-15 -13,-19l-81 -81c-4,-5 -11,-12 -23,-8z"/>
   <path class="fil3" d="M343 559c-8,2 -13,9 -13,19 1,9 9,14 13,19l80 81c5,4 11,13 23,10 8,-2 14,-9 13,-19 -1,-9 -10,-15 -14,-19l-55 -57c-3,-3 -6,-5 -9,-8 -14,-14 -24,-29 -38,-26z"/>
   <path class="fil3" d="M386 574l57 58c7,-6 21,-16 24,-24l-16 -13c-6,-6 -13,-11 -21,-20 -7,-8 -13,-14 -20,-24l-24 23z"/>
   <path class="fil3" d="M20 952c-11,13 -1,37 6,44 13,13 25,12 43,7 -2,-4 -1,-3 -6,-7l-43 -44z"/>
   <path class="fil1" d="M661 281c10,-3 14,12 4,15 -9,3 -16,-12 -4,-15zm-158 -21c10,-6 16,9 8,14 -7,3 -14,-3 -12,-10 1,-4 2,-3 4,-4zm246 -22c11,-5 16,10 7,14 -5,2 -9,0 -11,-3 -3,-8 2,-10 4,-11zm-230 19c-2,-1 -10,-10 -20,-4 -6,4 -10,12 -6,20 7,14 29,12 29,-9l40 -14c0,0 1,0 1,1l4 6c8,6 18,4 25,-6 4,1 54,31 56,33 -5,24 23,28 29,12 1,-4 -1,-4 3,-7 1,0 6,-3 7,-4l52 -30c6,2 11,9 21,3 15,-9 5,-34 -13,-28 -8,3 -9,8 -10,18l-60 35c-2,-5 -6,-8 -11,-10 -7,-1 -10,2 -15,4 -11,-8 -45,-26 -56,-33 -4,-3 -2,-4 -5,-8 -3,-5 -11,-9 -19,-5 -11,4 -4,10 -12,13 -11,4 -29,11 -40,13z"/>
  </g>
 </g>
</svg>
