<svg version="1.2" xmlns="http://www.w3.org/2000/svg" viewBox="0 0 750 250" width="750" height="250">
	<title>New Project</title>
	<style>
		tspan { white-space:pre } 
		.t0 { font-size: 40px;text-transform: uppercase;fill: #ffffff;font-weight: 700;font-family: "Montserrat-Bold", "Montserrat" } 
		.t1 { font-size: 9px;text-transform: uppercase;fill: #f6f6f6;font-weight: 400;font-family: "Montserrat-Regular", "Montserrat" } 
		.s2 { fill: #101c42 } 
		.s3 { fill: #f5a530 } 
		.s4 { fill: #00bbdd } 
		.s5 { fill: #ff8e27 } 
		.s6 { fill: #ffffff } 
	</style>
	<g id="OBJECTS">
		<g id="&lt;Group&gt;">
			<g id="&lt;Group&gt;">
				<text id="ANALYZIFY" style="transform: matrix(1.744,0,0,1.744,501.929,102.269)" >
					<tspan x="-133.8" y="0" class="t0" dx="0" >A</tspan><tspan  y="0" class="t0" dx="0" >N</tspan><tspan  y="0" class="t0" dx="0" >A</tspan><tspan  y="0" class="t0" dx="0" >L</tspan><tspan  y="0" class="t0" dx="0" >Y</tspan><tspan  y="0" class="t0" dx="0" >Z</tspan><tspan  y="0" class="t0" dx="0" >I</tspan><tspan  y="0" class="t0" dx="0" >F</tspan><tspan  y="0" class="t0" dx="0 4" >Y
</tspan>
				</text>
				<text id="INTELLIGENCE" style="transform: matrix(2.901,0,0,2.901,508.087,154.678)" >
					<tspan x="-53.5" y="0" class="t1" dx="0" >I</tspan><tspan  y="0" class="t1" dx="0" >N</tspan><tspan  y="0" class="t1" dx="0" >T</tspan><tspan  y="0" class="t1" dx="0" >E</tspan><tspan  y="0" class="t1" dx="0" >L</tspan><tspan  y="0" class="t1" dx="0" >L</tspan><tspan  y="0" class="t1" dx="0" >I</tspan><tspan  y="0" class="t1" dx="0" >G</tspan><tspan  y="0" class="t1" dx="0" >E</tspan><tspan  y="0" class="t1" dx="0" >N</tspan><tspan  y="0" class="t1" dx="0" >C</tspan><tspan  y="0" class="t1" dx="0 4" >E
</tspan>
				</text>
			</g>
			<g id="&lt;Group&gt;">
				<g id="&lt;Group&gt;">
					<path id="&lt;Path&gt;" class="s2" d="m72.9 194.3l-5.7-7.3 35.1-27.8 5.7 7.3z"/>
					<path id="&lt;Path&gt;" class="s3" d="m31.2 237.4l-18.2-23.3 49.3-38.6 18.2 23.3z"/>
				</g>
				<g id="&lt;Group&gt;">
					<path id="&lt;Path&gt;" class="s2" d="m176.9 99.5l35-28.2 3 3.7-35.1 28.2z"/>
					<path id="&lt;Compound Path&gt;" class="s4" d="m228.3 72l-7.7 6.2-9.2-3.5-1.5-9.7 7.7-6.2 9.1 3.5z"/>
				</g>
				<g id="&lt;Group&gt;">
					<g id="&lt;Group&gt;">
						<path id="&lt;Path&gt;" class="s2" d="m199 124.4h40v4.2h-40z"/>
						<path id="&lt;Compound Path&gt;" class="s5" d="m249.9 134.1h-8.8l-4.3-7.6 4.3-7.5h8.8l4.3 7.5z"/>
					</g>
					<g id="&lt;Group&gt;">
						<path id="&lt;Path&gt;" class="s2" d="m199 161.9h40v4.2h-40z"/>
						<path id="&lt;Compound Path&gt;" class="s3" d="m249.9 171.6h-8.8l-4.3-7.6 4.3-7.6h8.8l4.3 7.6z"/>
					</g>
					<g id="&lt;Group&gt;">
						<path id="&lt;Path&gt;" class="s2" d="m199 143.6h51.8v4.2h-51.8z"/>
						<path id="&lt;Compound Path&gt;" class="s4" d="m261.7 153.3h-8.7l-4.4-7.6 4.4-7.6h8.7l4.4 7.6z"/>
					</g>
				</g>
				<g id="&lt;Group&gt;">
					<g id="&lt;Group&gt;">
						<path id="&lt;Path&gt;" class="s2" d="m117.7 39h4.2v40.1h-4.2z"/>
						<path id="&lt;Compound Path&gt;" class="s3" d="m127.4 28.1v8.8l-7.6 4.4-7.6-4.4v-8.8l7.6-4.3z"/>
					</g>
					<g id="&lt;Group&gt;">
						<path id="&lt;Path&gt;" class="s2" d="m155.2 39h4.2v40.1h-4.2z"/>
						<path id="&lt;Compound Path&gt;" class="s5" d="m164.9 28.1v8.8l-7.6 4.4-7.6-4.4v-8.8l7.6-4.3z"/>
					</g>
					<g id="&lt;Group&gt;">
						<path id="&lt;Path&gt;" class="s2" d="m136.9 27.2h4.2v51.9h-4.2z"/>
						<path id="&lt;Compound Path&gt;" class="s4" d="m146.5 16.3v8.8l-7.5 4.3-7.6-4.3v-8.8l7.6-4.4z"/>
					</g>
				</g>
				<g id="&lt;Group&gt;">
					<g id="&lt;Group&gt;">
						<path id="&lt;Compound Path&gt;" fill-rule="evenodd" class="s6" d="m209.3 154.3c-11.1 39.1-51.8 61.7-90.9 50.6-39-11.1-61.7-51.7-50.6-90.8 11.1-39.1 51.8-61.8 90.8-50.7 39.1 11.1 61.8 51.8 50.7 90.9zm-58.9-42.1l-4.5 10.1c6.3 4.9 7.3 12 4.4 18.6-3.5 8-12.7 11.7-20.7 8.1-4.7-2-7.8-6-9-10.6l-9.7 1.6c1.3 8.8 6.9 16.8 15.7 20.7 13.7 6.1 29.6-0.1 35.6-13.8 5.8-12.9 0.9-27.8-11.8-34.7z"/>
						<path id="&lt;Compound Path&gt;" fill-rule="evenodd" class="s4" d="m197.1 150.8c-9.2 32.4-42.9 51.1-75.2 41.9-32.3-9.1-51.1-42.8-41.9-75.1 9.2-32.4 42.8-51.1 75.2-42 32.3 9.2 51.1 42.9 41.9 75.2zm-46.7-38.6l-4.5 10.1c6.3 4.9 7.3 12 4.4 18.6-3.5 8-12.7 11.7-20.7 8.1-4.7-2-7.8-6-9-10.6l-9.7 1.6c1.3 8.8 6.9 16.8 15.7 20.7 13.7 6.1 29.6-0.1 35.6-13.8 5.8-12.9 0.9-27.8-11.8-34.7z"/>
						<path id="&lt;Compound Path&gt;" fill-rule="evenodd" class="s6" d="m189.8 132.8l-0.8 10.7c-0.2 2.5-2.4 4.4-4.9 4.2l-3.3-0.3c-2.2-0.1-4.2 1-5 3q-1 2.2-2.2 4.3c-1.1 1.9-0.9 4.2 0.5 5.8l2.2 2.5c1.6 2 1.4 4.8-0.5 6.4l-8.2 7c-1.9 1.7-4.7 1.4-6.4-0.4l-2.1-2.6c-1.4-1.6-3.7-2.2-5.7-1.4q-2.2 0.9-4.6 1.5c-2 0.5-3.5 2.3-3.7 4.5l-0.3 3.3c-0.2 2.5-2.3 4.4-4.8 4.2l-10.8-0.9c-2.5-0.2-4.3-2.3-4.1-4.8l0.2-3.4c0.2-2.1-1-4.1-3-5q-2.2-0.9-4.3-2.2c-1.8-1-4.2-0.8-5.8 0.6l-2.5 2.1c-1.9 1.7-4.8 1.5-6.4-0.4l-7-8.2c-1.6-1.9-1.4-4.8 0.5-6.4l2.5-2.2c1.7-1.4 2.2-3.6 1.4-5.6q-0.8-2.3-1.5-4.6c-0.5-2.1-2.3-3.6-4.4-3.8l-3.4-0.2c-2.5-0.2-4.3-2.4-4.1-4.9l0.8-10.7c0.2-2.5 2.4-4.4 4.9-4.2l3.3 0.3c2.1 0.1 4.1-1.1 5-3q1-2.3 2.2-4.3c1.1-1.9 0.8-4.2-0.5-5.8l-2.2-2.6c-1.6-1.9-1.4-4.7 0.5-6.3l8.2-7.1c1.9-1.6 4.7-1.4 6.4 0.5l2.1 2.6c1.4 1.6 3.7 2.2 5.7 1.4q2.2-0.9 4.6-1.5c2-0.5 3.5-2.3 3.7-4.5l0.3-3.3c0.1-2.5 2.3-4.4 4.8-4.2l10.8 0.9c2.5 0.1 4.3 2.3 4.1 4.8l-0.2 3.4c-0.2 2.1 1 4.1 3 4.9q2.2 1 4.3 2.2c1.8 1.1 4.1 0.9 5.8-0.5l2.5-2.2c1.9-1.6 4.8-1.4 6.4 0.5l7 8.2c1.6 1.9 1.4 4.8-0.5 6.4l-2.5 2.2c-1.7 1.4-2.2 3.6-1.5 5.6q0.9 2.3 1.5 4.6c0.6 2.1 2.4 3.6 4.5 3.7l3.3 0.3c2.5 0.2 4.4 2.4 4.2 4.9zm-39.4-20.6l-4.5 10.1c6.3 4.9 7.3 12 4.4 18.6-3.5 8-12.7 11.7-20.7 8.1-4.7-2-7.8-6-9-10.6l-9.7 1.6c1.3 8.8 6.9 16.8 15.7 20.7 13.7 6.1 29.6-0.1 35.6-13.8 5.8-12.9 0.9-27.8-11.8-34.7z"/>
					</g>
					<g id="&lt;Group&gt;">
						<path id="&lt;Path&gt;" class="s4" d="m109.2 131.4l-9.8-2.1c2.5-9.9 8.4-18.2 16.3-23.6l5.4 8.3c-5.7 4-10.1 10.1-11.9 17.4z"/>
						<path id="&lt;Path&gt;" class="s3" d="m127.5 123.9l-5.2-8.1c-5.3 3.8-9.3 9.3-11 16.1l9.4 2c1.1-4.2 3.6-7.6 6.8-10z"/>
						<path id="&lt;Path&gt;" class="s3" d="m143.8 108.9l2-9.6c-10.1-1.9-20.1 0.2-28.2 5.2l5.3 8.3c6.1-3.6 13.4-5.2 20.9-3.9z"/>
						<path id="&lt;Path&gt;" class="s4" d="m129.3 122.7c3.6-2 7.7-2.9 12-2.3l2-9.4c-6.9-1.1-13.6 0.3-19.2 3.6z"/>
					</g>
				</g>
			</g>
		</g>
	</g>
</svg>